HIERARCHY
ROOT hip
{
  OFFSET 0 0 0
  CHANNELS 6 Xposition Yposition Zposition Zrotation Yrotation Xrotation
  JOINT abdomen
  {
    OFFSET 0 20.6881 -0.73152
    CHANNELS 3 Zrotation Xrotation Yrotation
    JOINT chest
    {
      OFFSET 0 11.7043 -0.48768
      CHANNELS 3 Zrotation Xrotation Yrotation
      JOINT neck
      {
        OFFSET 0 22.1894 -2.19456
        CHANNELS 3 Zrotation Xrotation Yrotation
        JOINT head
        {
          OFFSET -0.24384 7.07133 1.2192
          CHANNELS 3 Zrotation Xrotation Yrotation
          JOINT leftEye
          {
            OFFSET 4.14528 8.04674 8.04672
            CHANNELS 3 Zrotation Xrotation Yrotation
            End Site
            {
              OFFSET 1 0 0
            }
          }
          JOINT rightEye
          {
            OFFSET -3.6576 8.04674 8.04672
            CHANNELS 3 Zrotation Xrotation Yrotation
            End Site
            {
              OFFSET 1 0 0
            }
          }
        }
      }
      JOINT rCollar
      {
        OFFSET -2.68224 19.2634 -4.8768
        CHANNELS 3 Zrotation Xrotation Yrotation
        JOINT rShldr
        {
          OFFSET -8.77824 -1.95073 1.46304
          CHANNELS 3 Zrotation Xrotation Yrotation
          JOINT rForeArm
          {
            OFFSET -28.1742 -1.7115 0.48768
            CHANNELS 3 Zrotation Xrotation Yrotation
            JOINT rHand
            {
              OFFSET -22.5879 0.773209 7.07136
              CHANNELS 3 Zrotation Xrotation Yrotation
              JOINT rThumb1
              {
                OFFSET -1.2192 -0.487915 3.41376
                CHANNELS 3 Zrotation Xrotation Yrotation
                JOINT rThumb2
                {
                  OFFSET -3.37035 -0.52449 3.41376
                  CHANNELS 3 Zrotation Xrotation Yrotation
                  End Site
                  {
                    OFFSET -1.78271 -1.18214 1.43049
                  }
                }
              }
              JOINT rIndex1
              {
                OFFSET -7.75947 0.938293 5.60832
                CHANNELS 3 Zrotation Xrotation Yrotation
                JOINT rIndex2
                {
                  OFFSET -2.54057 -0.884171 1.56538
                  CHANNELS 3 Zrotation Xrotation Yrotation
                  End Site
                  {
                    OFFSET -1.62519 -0.234802 1.16502
                  }
                }
              }
              JOINT rMid1
              {
                OFFSET -8.24714 1.18213 3.41376
                CHANNELS 3 Zrotation Xrotation Yrotation
                JOINT rMid2
                {
                  OFFSET -3.10165 -0.590103 1.0647
                  CHANNELS 3 Zrotation Xrotation Yrotation
                  End Site
                  {
                    OFFSET -2.48547 -0.328903 0.83742
                  }
                }
              }
              JOINT rRing1
              {
                OFFSET -8.82822 0.546677 1.51678
                CHANNELS 3 Zrotation Xrotation Yrotation
                JOINT rRing2
                {
                  OFFSET -2.60934 -0.819778 -0.0198488
                  CHANNELS 3 Zrotation Xrotation Yrotation
                  End Site
                  {
                    OFFSET -2.33842 -0.294052 0.168128
                  }
                }
              }
              JOINT rPinky1
              {
                OFFSET -8.27202 -0.0477905 -0.4584
                CHANNELS 3 Zrotation Xrotation Yrotation
                JOINT rPinky2
                {
                  OFFSET -1.82734 -0.647385 -0.700984
                  CHANNELS 3 Zrotation Xrotation Yrotation
                  End Site
                  {
                    OFFSET -1.69225 -0.51767 -0.607171
                  }
                }
              }
            }
          }
        }
      }
      JOINT lCollar
      {
        OFFSET 2.68224 19.2634 -4.8768
        CHANNELS 3 Zrotation Xrotation Yrotation
        JOINT lShldr
        {
          OFFSET 8.77824 -1.95073 1.46304
          CHANNELS 3 Zrotation Xrotation Yrotation
          JOINT lForeArm
          {
            OFFSET 28.1742 -1.7115 0.48768
            CHANNELS 3 Zrotation Xrotation Yrotation
            JOINT lHand
            {
              OFFSET 22.5879 0.773209 7.07136
              CHANNELS 3 Zrotation Xrotation Yrotation
              JOINT lThumb1
              {
                OFFSET 1.2192 -0.487915 3.41376
                CHANNELS 3 Zrotation Xrotation Yrotation
                JOINT lThumb2
                {
                  OFFSET 3.37035 -0.52449 3.41376
                  CHANNELS 3 Zrotation Xrotation Yrotation
                  End Site
                  {
                    OFFSET 1.78271 -1.18214 1.43049
                  }
                }
              }
              JOINT lIndex1
              {
                OFFSET 7.75947 0.938293 5.60832
                CHANNELS 3 Zrotation Xrotation Yrotation
                JOINT lIndex2
                {
                  OFFSET 2.54057 -0.884171 1.56538
                  CHANNELS 3 Zrotation Xrotation Yrotation
                  End Site
                  {
                    OFFSET 1.62519 -0.234802 1.16502
                  }
                }
              }
              JOINT lMid1
              {
                OFFSET 8.24714 1.18213 3.41376
                CHANNELS 3 Zrotation Xrotation Yrotation
                JOINT lMid2
                {
                  OFFSET 3.10165 -0.590103 1.0647
                  CHANNELS 3 Zrotation Xrotation Yrotation
                  End Site
                  {
                    OFFSET 2.48547 -0.328903 0.83742
                  }
                }
              }
              JOINT lRing1
              {
                OFFSET 8.82822 0.546677 1.51678
                CHANNELS 3 Zrotation Xrotation Yrotation
                JOINT lRing2
                {
                  OFFSET 2.60934 -0.819778 -0.0198488
                  CHANNELS 3 Zrotation Xrotation Yrotation
                  End Site
                  {
                    OFFSET 2.33842 -0.294052 0.168128
                  }
                }
              }
              JOINT lPinky1
              {
                OFFSET 8.27202 -0.0477905 -0.4584
                CHANNELS 3 Zrotation Xrotation Yrotation
                JOINT lPinky2
                {
                  OFFSET 1.82734 -0.647385 -0.700984
                  CHANNELS 3 Zrotation Xrotation Yrotation
                  End Site
                  {
                    OFFSET 1.69225 -0.51767 -0.607171
                  }
                }
              }
            }
          }
        }
      }
    }
  }
  JOINT rButtock
  {
    OFFSET -8.77824 4.35084 1.2192
    CHANNELS 3 Zrotation Xrotation Yrotation
    JOINT rThigh
    {
      OFFSET 0 -1.70687 -2.19456
      CHANNELS 3 Zrotation Xrotation Yrotation
      JOINT rShin
      {
        OFFSET 0 -36.8199 0.73152
        CHANNELS 3 Zrotation Xrotation Yrotation
        JOINT rFoot
        {
          OFFSET 0.73152 -45.1104 -5.12064
          CHANNELS 3 Zrotation Xrotation Yrotation
          End Site
          {
            OFFSET -1.1221 -3.69964 12.103
          }
        }
      }
    }
  }
  JOINT lButtock
  {
    OFFSET 8.77824 4.35084 1.2192
    CHANNELS 3 Zrotation Xrotation Yrotation
    JOINT lThigh
    {
      OFFSET 0 -1.70687 -2.19456
      CHANNELS 3 Zrotation Xrotation Yrotation
      JOINT lShin
      {
        OFFSET 0 -36.8199 0.73152
        CHANNELS 3 Zrotation Xrotation Yrotation
        JOINT lFoot
        {
          OFFSET -0.73152 -45.1104 -5.12064
          CHANNELS 3 Zrotation Xrotation Yrotation
          End Site
          {
            OFFSET 1.1221 -3.69964 12.103
          }
        }
      }
    }
  }
}
MOTION
Frames:	7
Frame Time:	0.03333
0.0 0.0 0.0 0.0 0.0 0.0 0.0 0.0 0.0 0.0 0.0 0.0 0.0 0.0 0.0 0.0 0.0 0.0 0.0 0.0 0.0 0.0 0.0 0.0 0.0 0.0 0.0 0.0 0.0 0.0 0.0 0.0 0.0 0.0 0.0 0.0 0.0 0.0 0.0 0.0 0.0 0.0 0.0 0.0 0.0 0.0 0.0 0.0 0.0 0.0 0.0 0.0 0.0 0.0 0.0 0.0 0.0 0.0 0.0 0.0 0.0 0.0 0.0 0.0 0.0 0.0 0.0 0.0 0.0 0.0 0.0 0.0 0.0 0.0 0.0 0.0 0.0 0.0 0.0 0.0 0.0 0.0 0.0 0.0 0.0 0.0 0.0 0.0 0.0 0.0 0.0 0.0 0.0 0.0 0.0 0.0 0.0 0.0 0.0 0.0 0.0 0.0 0.0 0.0 0.0 0.0 0.0 0.0 0.0 0.0 0.0 0.0 0.0 0.0 0.0 0.0 0.0 0.0 0.0 0.0 0.0 0.0 0.0 0.0 0.0 0.0 0.0 0.0 0.0 0.0 0.0 0.0
-1.6223999999999998 58.1969 -0.2993 -19.658208 55.629974 -12.009653 5.337976 6.38241 -180.0 -1.789368 3.499336 -166.932709 -4.80025 14.431865 -10.703549 14.496588 -24.115763 16.164965 -0.004488 0.0 -0.002896 -0.0045 0.0 -0.001029 -0.165428 0.979051 0.220022 65.256256 11.061279 -5.222869 -5.413083 4.215826 46.819558 -5.21259 30.761441 2.45831 -78.493421 38.701427 42.741424 25.503184 -27.335079 19.816386 -166.032285 -42.807025 122.219098 -55.015512 56.541566 41.98682 -153.320389 13.628894 138.862396 -168.07608 -19.517826 143.899812 -0.019522 -1.724339 -0.542029 -156.365637 -26.320541 174.937436 -26.564394 -38.86087 -25.605847 -126.518812 -30.695202 -125.544769 155.503956 -3.514301 -161.839243 -132.712561 -14.705335 -179.427623 -68.936332 -53.237308 -72.035721 104.197492 78.904051 -88.02704 -88.928274 -50.830929 -37.599917 59.080427 30.959091 -19.343485 -73.41915 -73.571808 -26.563703 -89.662291 -65.179606 -32.795424 160.572238 -6.359345 -143.198859 155.870187 15.493671 -139.523776 72.757523 -72.142273 89.772704 -14.723401 -0.023366 4.583215 -12.25459 41.424647 -10.279128 141.718367 -6.39863 138.119852 179.970005 75.750042 0.02468 156.407813 64.943592 -154.261454 -31.735733 -60.374574 -141.419553 -171.35205 23.040534 91.607744 179.994579 75.749265 0.004178 -157.824084 1.79862 -90.329335 -70.620441 6.059335 78.329413 -71.180095 -25.623163 16.669219
-2.58 58.132600000000004 -0.3817 -18.233098 55.870734 -11.220466 4.932957 11.555141 -23.31018 4.101331 -7.090777 36.331197 -5.422956 32.735013 -142.900314 22.660839 40.74828 138.512452 0.002851 0.0 0.001009 0.002851 0.0 0.001009 -0.048234 0.292508 0.06455 -107.039154 -17.381361 -174.60691 -171.551082 3.998892 -134.824974 -6.735572 34.72477 2.759318 -174.391884 -12.052207 89.858903 -98.297418 13.867673 40.080845 -149.660972 -14.028505 120.543411 85.341794 -69.638269 33.578178 -2.428415 6.789074 1.442121 -170.253267 -26.255833 144.300297 -0.000622 -0.01864 -0.00497 -145.019913 -79.291779 -167.635545 -125.809003 -27.878233 -123.552204 -78.660515 -53.006615 -78.959851 2.807931 14.086002 -3.512099 101.175 -5.590304 -157.858078 84.789969 -53.180934 113.129998 -32.961167 -50.876341 -24.292511 -1.177636 -1.166007 0.167569 144.744349 -53.383329 -121.390095 140.164714 2.326088 -115.877407 169.124151 -26.700474 -118.442434 82.841196 61.109959 -74.532083 7.210223 26.186567 -6.239896 -0.005377 1.771417 -0.556272 -4.471144 40.266086 -7.351102 0.345048 -0.890351 0.317209 147.215848 11.346504 143.621159 0.000298 -0.000823 -0.000383 -10.452369 -9.028598 -1.865551 -8.067709 71.042679 -88.792223 19.222171 -30.162513 86.276752 -179.996945 75.749662 -0.003152 -161.158497 2.32211 96.771425 70.18941 -11.167488 -123.26949 -7.425101 -4.540685 33.707401
-3.5900000000000003 58.084 -0.42110000000000003 -16.941666 56.17024 -10.527764 1.090242 8.278268 136.793454 -5.520936 0.693267 -123.887056 10.214627 23.850325 100.060717 -34.532156 11.737615 -94.655896 -0.003118 0.0 -0.004415 -0.002772 0.0 -0.000848 -44.04137 64.186567 46.711145 63.998145 -9.87442 53.836935 -16.169323 -16.554045 40.849307 -1.719112 19.510488 2.049668 -5.335558 5.170231 1.054619 18.378792 -24.310014 -9.170382 0.53025 -0.867788 -0.296953 -9.410966 25.56807 8.236372 37.458721 -72.537226 11.711939 -4.961331 20.743895 4.408233 -75.674677 -72.116759 -92.828715 -149.873621 -26.384283 -179.935616 -4.077511 -9.640291 -3.812415 -94.472511 -51.928922 -94.018693 14.147309 43.061863 -15.995486 -75.859762 -8.383269 -47.869353 -85.930268 -48.69295 -77.329398 159.300837 64.605999 -138.603079 68.482178 37.953881 -35.659796 46.134239 2.672975 -47.002337 -159.643274 -69.973586 -102.399204 -16.543568 -0.940929 7.90405 -13.807809 -42.122464 2.983639 -29.32558 -60.222845 -6.517187 71.924498 72.973587 -89.772109 158.703554 -27.874492 179.902575 -32.019107 83.320285 -6.228194 76.849023 -53.903214 75.484866 0.000665 -0.000505 -0.000855 -11.87921 -12.321134 80.236574 80.182002 2.655826 76.209997 30.594822 30.595624 175.28183 -179.999578 75.749321 -0.000347 -161.078741 2.063108 -180.0 -53.18747 -77.16309 -86.414663 137.766748 52.119333 152.052214
-4.7651 58.07560000000001 -0.3966 -15.827316 56.51015 -10.183149 1.667852 13.108434 -0.310661 1.837475 -8.539239 13.144998 8.751707 18.941349 71.250923 -30.641167 -5.235472 -70.421268 -0.002296 0.0 -0.001395 -0.001969 -0.0 0.004032 3.445384 -62.740779 -13.276117 100.793676 46.162175 -78.450519 -5.065314 -6.024963 48.729122 -5.417404 30.582936 2.359225 -2.813834 2.754285 0.497691 -156.767516 -66.249835 116.004357 10.748769 -19.047543 -4.7248 -174.364438 -33.445673 107.424554 -151.476868 17.842292 137.540289 -163.688947 -6.256293 143.137721 -69.297753 72.947006 87.016723 5.068127 27.973013 -0.626366 1.132697 3.040908 1.043873 -24.293244 -41.345116 -24.922684 155.504407 -3.514746 -161.837798 -133.560303 -7.291802 -178.735513 -19.106485 -36.267048 -32.179445 16.697993 55.794555 -7.86964 -6.463065 -6.452921 0.63382 53.623512 31.234497 -45.928307 158.404174 -30.155964 -122.60281 86.984356 56.417599 -69.76876 160.098125 -4.901119 -142.969081 1.392145 12.595635 -2.558348 145.1223 1.974298 179.749143 7.081272 -61.105617 27.894496 -6.226774 18.789656 -5.57501 5.58666 -17.851588 6.90819 179.998507 75.749997 -0.0 157.698757 58.568396 123.746073 77.863832 -20.095878 13.221302 93.412342 78.648352 168.283352 179.977425 75.74915 0.018575 -162.104938 5.189329 -0.0 40.958556 67.839233 44.945639 -142.484044 21.374042 67.541519
-5.992999999999999 58.086000000000006 -0.295 -14.947998 56.731215 -9.925623 0.154114 13.581993 18.216842 -0.399229 -8.773616 -5.291838 -5.339633 32.748963 -142.943833 22.256846 40.486643 138.971956 -0.000244 -0.0 0.001345 -0.000316 0.0 -0.000443 4.239048 -44.742806 -8.647428 -83.159667 -40.2665 -121.614287 11.564866 -15.658172 -82.524027 160.955152 -28.957655 142.020251 -6.581802 6.344534 1.365937 11.136992 -12.684203 -3.868163 -145.906485 -7.259487 118.950453 95.442778 -70.540078 43.310008 -0.970499 2.779447 0.552865 -83.245766 64.350028 75.229015 -9.5e-05 0.063874 0.019843 -6.632889 62.751616 19.320465 -156.383777 53.734159 -150.116992 -147.224504 8.696079 -141.248508 155.460364 -3.227642 -161.77792 54.558661 27.606206 -2.387459 -106.875524 61.59186 90.435061 60.787134 76.81522 -45.961499 3.0299 2.96439 -0.541058 166.558918 -72.595395 -110.442123 129.576978 16.76171 -108.786376 -45.060347 -54.796852 -3.191674 36.035363 51.723417 -29.831921 163.165473 -4.971077 -143.275455 67.605902 -72.075965 84.372831 79.221063 83.056143 -97.065907 144.111068 8.780971 140.875592 25.650208 -40.252233 27.039865 0.000954 -0.000944 -0.001227 -8.827657 -17.200187 -113.277697 -80.726135 -17.113856 -162.289868 86.859291 81.022368 173.815411 0.002109 -6.7e-05 0.001054 39.696104 -64.795984 103.682515 68.609288 20.775886 -162.624873 145.524173 1.319846 -93.959993
-7.3252 58.153600000000004 -0.17520000000000002 -14.64221 56.93694 -10.253645 0.52799 14.176061 -0.107979 1.366675 -8.50756 13.377425 9.398588 28.041787 125.137244 -31.003732 26.227937 -116.538138 -0.003911 0.0 -0.000113 0.001813 -0.0 -0.000357 0.162673 -0.990107 -0.218299 -105.840379 -22.919254 -173.277525 -173.446834 10.280742 -128.873407 -7.67837 36.002895 2.814553 -99.394913 37.101944 57.492069 -28.527545 -9.509779 34.137742 15.557111 -27.950972 -5.752294 -1.511573 21.280113 4.585593 6.533389 -20.414821 -2.719701 -150.919796 26.783471 136.495335 -0.015421 -1.322835 -0.41792 8.556331 19.539072 2.743789 -124.850004 -29.03823 -122.621576 -93.631725 -50.348914 -93.538104 159.220321 -48.380742 -170.492598 106.38791 -49.142886 77.046147 -4.60053 29.54347 58.571765 -159.539579 -32.685239 -140.532799 93.74369 37.964367 -53.548671 -168.011111 -44.85313 -73.409783 145.338773 -6.265103 -118.676371 1.944323 21.876887 4.345834 160.096992 -4.901274 -142.969219 -80.98584 -77.630262 -52.529243 145.100929 -1.522174 178.650124 156.111563 63.859218 -172.310592 0.344318 -0.889956 0.320315 -2.147242 -0.991605 0.287628 -179.995995 75.74965 -0.002741 165.504321 54.923903 -180.0 77.558606 -65.886611 160.547888 34.861379 27.661765 79.534516 0.001349 -8e-06 0.000675 41.657216 -64.015183 -72.885913 -77.119389 -11.74116 -107.445033 -58.962019 -12.054292 177.786984
